<?xml version="1.0" standalone="no"?>
<!DOCTYPE svg PUBLIC "-//W3C//DTD SVG 20010904//EN"
 "http://www.w3.org/TR/2001/REC-SVG-20010904/DTD/svg10.dtd">
<svg version="1.0" xmlns="http://www.w3.org/2000/svg"
 width="260.000000pt" height="260.000000pt" viewBox="0 0 260.000000 260.000000"
 preserveAspectRatio="xMidYMid meet">
<metadata>
Created by potrace 1.11, written by Peter Selinger 2001-2013
</metadata>
<g transform="translate(0.000000,260.000000) scale(0.100000,-0.100000)"
fill="#000000" stroke="none">
<path d="M1010 2517 c-112 -43 -245 -114 -343 -185 -105 -75 -240 -219 -301
-321 -45 -74 -108 -222 -120 -281 -3 -14 -8 -36 -11 -50 -10 -46 -17 -115 -19
-195 -9 -365 168 -727 464 -949 73 -54 77 -57 206 -120 159 -79 353 -129 519
-135 18 -1 20 -8 20 -71 l0 -70 -177 0 -178 0 0 -40 c0 -22 5 -40 10 -41 6 0
175 -1 378 -1 l367 -1 3 42 3 41 -154 0 -154 0 -1 70 c0 39 2 70 6 71 4 0 23
2 42 4 129 12 156 17 274 56 137 46 209 87 343 196 l23 18 -33 36 -33 36 -38
-33 c-21 -19 -43 -31 -47 -28 -5 3 -22 25 -39 49 l-30 44 46 35 c26 20 41 36
33 36 -56 2 -249 38 -303 56 -46 16 -51 14 -54 -23 -1 -15 -11 -75 -21 -133
-10 -58 -17 -107 -15 -109 7 -7 115 29 174 59 l56 27 32 -48 c18 -27 32 -53
32 -58 0 -5 -33 -23 -73 -39 -207 -87 -402 -106 -654 -66 -57 9 -197 51 -266
80 -343 144 -583 441 -652 807 -23 120 -15 326 17 437 48 165 129 301 251 422
70 69 204 171 218 166 4 -2 22 -23 38 -48 l31 -45 -23 -18 c-48 -39 -167 -161
-173 -179 -3 -10 -10 -18 -15 -18 -21 0 -7 -18 19 -24 62 -15 252 -79 252 -85
0 -3 -24 -25 -53 -48 -52 -40 -53 -40 -82 -25 -35 18 -181 72 -196 72 -14 0
-64 -114 -89 -202 -20 -72 -35 -205 -31 -263 2 -16 6 -13 21 15 10 19 29 47
42 63 l23 27 32 -27 c30 -27 31 -30 30 -113 0 -80 -2 -87 -32 -125 -17 -22
-41 -56 -52 -75 -21 -35 -21 -35 -3 -88 38 -108 133 -255 210 -327 28 -26 31
-27 21 -7 -7 13 -23 52 -36 87 l-24 63 92 53 c51 28 106 60 122 69 17 10 65
38 109 63 89 51 91 41 -23 105 l-53 30 55 40 c143 106 508 332 536 332 6 0 25
-9 43 -20 47 -29 59 -26 53 13 -2 17 -7 68 -10 112 -3 44 -8 94 -10 110 -2 17
-7 59 -10 95 -5 60 -17 144 -30 212 l-5 28 35 -17 c34 -16 47 -39 60 -108 41
-216 51 -286 61 -430 3 -55 9 -104 12 -109 3 -5 0 -6 -6 -2 -6 3 -86 -42 -179
-102 -92 -59 -223 -141 -290 -182 -68 -40 -123 -76 -123 -79 0 -18 306 -168
458 -225 138 -52 306 -98 429 -117 l81 -12 27 29 c52 57 138 197 170 277 143
357 62 759 -209 1029 -125 125 -273 211 -435 252 -183 48 -406 35 -584 -32
-47 -18 -59 -34 -30 -38 10 -2 34 -5 53 -8 19 -3 53 -8 75 -11 22 -4 58 -11
80 -17 22 -5 48 -12 59 -14 61 -12 236 -75 236 -85 0 -5 -5 -9 -11 -9 -6 0
-49 -20 -97 -44 -86 -43 -88 -43 -132 -29 -65 20 -208 53 -255 60 -22 3 -43 8
-47 12 -4 4 -9 37 -10 74 -2 67 -11 80 -37 55 -13 -14 -29 2 -65 63 l-16 27
83 35 c45 20 95 39 110 42 25 7 27 10 21 39 -15 69 -10 68 -104 33z"/>
<path d="M964 963 c2 -16 7 -46 11 -68 7 -38 93 -326 100 -333 2 -2 41 8 87
22 79 24 86 24 143 10 33 -8 75 -17 94 -20 18 -3 43 -8 55 -10 11 -3 39 -7 61
-10 22 -3 50 -7 62 -9 33 -7 30 -24 49 253 l6 93 -108 -57 -107 -58 -51 18
c-67 24 -286 128 -347 166 -27 16 -52 30 -55 30 -3 0 -3 -12 0 -27z"/>
</g>
</svg>
